<svg enable-background="new 0 0 478 313.2" height="313.2" viewBox="0 0 478 313.2" width="478" xmlns="http://www.w3.org/2000/svg"><path d="m101.3 60c22.7 0 67.8 9.3 67.8 41.3v19.4h-32.8v-10.4c0-13.4-21.2-19.4-35-19.4-36.9 0-64.4 27.5-64.4 67.4 0 42.8 31.3 67 66.3 67 35.4 0 58.4-26.1 58.4-26.1l15.6 25.7s-26.8 32.4-76.7 32.4c-59.2.1-100.5-42-100.5-98.6 0-55.5 40.6-98.7 101.3-98.7z"/><path d="m218.5 103.6c0-5.6-3-8.2-8.2-8.2h-15.3v-30.9h35.4c16.8 0 23.8 7.1 23.8 23.8v125.5c0 5.6 3 8.2 8.2 8.2h15.3v30.9h-35.4c-16.8 0-23.8-7.1-23.8-23.8z"/><path d="m402.1 60c22.7 0 67.8 9.3 67.8 41.3v19.4h-32.8v-10.4c0-13.4-21.2-19.4-35-19.4-36.9 0-64.4 27.5-64.4 67.4 0 42.8 31.3 67 66.3 67 35.4 0 58.4-26.1 58.4-26.1l15.6 25.8s-26.8 32.4-76.7 32.4c-59.2 0-100.5-42.1-100.5-98.7 0-55.5 40.6-98.7 101.3-98.7z"/><circle cx="235.5" cy="18.2" r="18.2"/><path d="m191.3 4.3c7.7-.1 13.9 6.1 14 13.8s-6.1 13.9-13.8 14-13.9-6.1-14-13.8c0-7.7 6.2-13.9 13.8-14z" opacity=".7"/><path d="m153.1 5.9c6.8-.1 12.4 5.3 12.5 12.1s-5.3 12.4-12.1 12.5-12.4-5.3-12.5-12.1 5.3-12.4 12.1-12.5z" opacity=".45"/><ellipse cx="119.4" cy="18.2" opacity=".2" rx="9.6" ry="9.6" transform="matrix(1 -.00245317 .00245317 1 -.044288 .293)"/></svg>