<svg enable-background="new 0 0 890.1 393.2" height="393.2" viewBox="0 0 890.1 393.2" width="890.1" xmlns="http://www.w3.org/2000/svg"><path d="m605 217c12 0 20-8 20-20 0-13-8-21-20-21s-20 8-20 21c0 12 8 20 20 20z"/><path d="m153 89c-96 0-153 59-153 126 2 58 38 83 67 83 18 0 30-8 33-17-17-3-49-20-49-67 0-59 51-98 101-98 58 0 85 41 86 73 1 44-26 65-45 65-15 0-34.5-13.2-30.2-40.2 5.3-23.5 13.9-35.6 16.2-37.8 0-1-4-6-11-7-22-3-47 21-51 72-1 34 8 58 6 82-4 40-17 51-22 60 2 4 9 9 18 10 25 3 45-23 46-62 .6-16.9-2.4-36-4.5-54.9 8.4 6.3 19.6 9.9 33.5 9.9 58 0 93-44 93-92 0-54-49-105-134-105z"/><path d="m890 346c-20-4-24-50-24-72 0-18-2-40-23-40-23 0-46 35-57 71-2-13-1-33 6-61-3-5-6-8-15-8-8.9 0-15.6 8.3-20 21.1v-.1c-.1.3-.1.5-.2.8-.6 1.8-1.1 3.7-1.7 5.6-4.6 12.8-13.4 19.7-23.1 20.5 0-.3 0-.6 0-.9-2-38-19-51-31-51-6.5 0-11.9 4.1-15.1 10.7-3.1-2.3-7.1-3.7-11.9-3.7-23 0-45 32-42 72v.2c-3.9 11.8-9.6 20.8-18 20.8-17 0-12-51-4-89-3-5-6-7-15-7-7.1 0-12.2 4.5-16 12.3v-.3c-13.4 24.4-27.4 42.6-43 57.6-4.9-11.1-11-22.1-16.2-31.6 6.5-10.9 9.2-21.9 9.2-31 0-12-7-21-17-21-12 0-24 14-24 33 0 5.3 1.2 11.7 3.1 18.8-10.4 13.1-21.9 24.5-32.9 34.2-4.9-11.3-11.1-22.4-16.3-32 6.5-10.9 9.2-21.9 9.2-31 0-12-7-21-17-21-12 0-24 14-24 33 0 5.2 1.2 11.6 3 18.6-9.9 27.5-24.5 60.4-36 60.4-19 0-8-51-1-72-2.7-4.2-8.1-6.8-14-6.4-1.1-13.8-11.1-25.6-31-25.6-33 0-70 40-70 89 0 27 15 43 35 43 17.2 0 31.7-10.4 42.7-25 5 14.1 15.1 25 32.3 25 26.1 0 42.3-22 53.9-52.8 2.7 7.5 5.3 14.6 7.2 20.8-9.9 11-17.1 22-17.1 32 0 13 8 21 20 21 18 0 32-17 32-43 0-1.5-.1-3-.2-4.5 11.3-10.5 23.7-23.7 33.3-36 3.7 10.3 7.4 20.2 10 28.5-9.9 11-17.1 22-17.1 32 0 13 8 21 20 21 18 0 32-17 32-43 0-1.6-.1-3.3-.3-5 9-9.2 17.5-20.1 25-30.9-.5 27.3 7.2 56.9 40.3 56.9 13.1 0 24.5-7.3 32.9-19.2 9 12.4 22.7 20.2 38.1 20.2 23.4 0 43.6-19.6 49.4-53 6.9-.3 14-2.6 20.4-6.8.3 21.2 6.1 56.9 30.1 56.9s13-30 49-84c-6 40 5 90 38 90 12-.1 23-8.1 22-19.1zm-550-65.8v-.2h.1c0 .1 0 .2-.1.2zm-1 .8c-6 24-20 51-32 51-8 0-11-8-11-15-1-26 20-56 34-56 11 0 12 10 9 20zm345 51c-11 0-18-10-19-24-1.6-22.6 6.6-39.2 17.9-45.8 0 .3.1.6.1.8 1.3 17.5 9.2 31.1 21 38.9-2.7 18.8-10.8 30.1-20 30.1z"/><path d="m406 0c-47 0-85 38-85 85s38 85 85 85 85-38 85-85-38-85-85-85zm0 57c0 4-3 6-6 6h-18c-4 0-6 3-6 6 0 4 2 7 6 7h10c4 0 6 2 6 6v4c0 4-2 6-6 6h-10c-4 0-6 3-6 6 0 4 2 7 6 7h18c3 0 6 2 6 6v5c0 4-3 6-6 6h-37c-4 0-6-2-6-6v-64c0-4 2-7 6-7h37c3 0 6 3 6 7zm55 60c0 4-2 6-6 6h-30c-4 0-7-2-7-6v-65c0-4 3-7 7-7h6c4 0 6 3 6 7v47c0 4 3 7 7 7h11c4 0 6 2 6 6z" fill="#5c5d60"/></svg>