<svg enable-background="new 0 0 499.8 393.4" height="393.4" viewBox="0 0 499.8 393.4" width="499.8" xmlns="http://www.w3.org/2000/svg"><path d="m474.1 125.8c-2.2-24.9-12.8-49.2-31.8-68.2-18.5-18.5-42.7-29.6-68.3-31.8-19.2-16.1-43.8-25.8-70.7-25.8-26.1 0-51.1 9.3-70.8 25.8-24.9 2.2-49.2 12.8-68.2 31.8-8.3 8.3-15.1 17.7-20.3 28-.1.1-.1.1-.2.2-.3.7-.7 1.4-1 2.1-.3.6-.6 1.3-.9 1.9-9.5 19.3-23.8 35.9-39.9 49.9-38.3 33.4-85.6 47.5-100.8 51.5-1.5.4-1.7 2.5-.2 3.1 14.1 6.1 60.4 28.1 98.1 59.6 16.4 13.7 32.3 29.9 42.5 49.1 5.3 11.9 12.8 23 22.6 32.8 18.5 18.5 42.7 29.6 68.3 31.8 19.2 16.1 43.8 25.8 70.7 25.8 26.1 0 51.1-9.3 70.8-25.8 24.9-2.2 49.2-12.8 68.2-31.8 18.5-18.5 29.6-42.7 31.8-68.3 16.1-19.2 25.8-43.8 25.8-70.7.1-26.3-9.1-51.3-25.7-71zm-101.9 152.9c-37.4 0-70.9-22.3-85.4-56.8-.5-1.2-1.9-1.7-3-1.1-.9.5-1.3 1.6-1 2.6 12.3 49.1 56.2 83.5 106.9 83.5 11.8 0 23.2-1.9 33.9-5.4 1.2-.4 2.1 1.1 1.2 1.9-36.1 36.1-94.8 36.1-130.9 0-26.4-26.4-34.4-65.8-20.2-100.5.4-.9.2-2.1-.7-2.7-1.1-.8-2.5-.5-3.1.6-26.2 43.4-19.4 98.9 16.5 134.7 8.4 8.4 17.8 15.1 27.8 20.2 1.1.6.7 2.2-.5 2.2-51 0-92.5-41.5-92.5-92.5 0-37.4 22.3-70.9 56.8-85.4 1-.4 1.6-1.6 1.2-2.7s-1.5-1.7-2.6-1.4c-49.2 12.2-83.6 56.2-83.6 107 0 11.8 1.9 23.2 5.4 33.9.4 1.2-1.1 2.1-1.9 1.2-17.5-17.5-27.1-40.7-27.1-65.4s9.6-48 27.1-65.4c26.5-26.5 65.9-34.4 100.6-20.2 1.2.5 2.5-.1 2.9-1.4.3-1-.2-2-1.1-2.5-43.4-26.1-98.8-19.3-134.6 16.6-8.4 8.4-15.1 17.8-20.2 27.8-.6 1.1-2.2.7-2.2-.5 0-51 41.5-92.5 92.5-92.5 37.4 0 70.9 22.3 85.3 56.7.4 1 1.4 1.6 2.5 1.4 1.2-.3 1.9-1.5 1.7-2.6-12.2-49.2-56.2-83.6-107-83.6-11.8 0-23.2 1.9-33.9 5.4-1.2.4-2.1-1.1-1.2-1.9 36.1-36.1 94.8-36.1 130.9 0 26.2 26.3 34.2 65.7 20.1 100.3-.4 1-.2 2.1.7 2.7.4.3.8.4 1.3.4.7 0 1.4-.4 1.9-1 26.2-43.4 19.4-98.9-16.5-134.7-8.4-8.4-17.8-15.1-27.8-20.2-1.1-.6-.7-2.2.5-2.2 51 0 92.5 41.5 92.5 92.5 0 37.4-22.3 70.9-56.7 85.3-1 .4-1.6 1.5-1.4 2.5s1.1 1.7 2.1 1.7c.2 0 .3 0 .5-.1 49.2-12.2 83.6-56.2 83.6-107 0-11.8-1.9-23.2-5.4-33.9-.4-1.2 1.1-2.1 1.9-1.2 36.1 36.1 36.1 94.8 0 130.9-26.4 26.4-65.9 34.4-100.5 20.2-.9-.4-2.1-.2-2.7.7-.8 1.1-.5 2.5.6 3.1 17.7 10.6 37.3 15.8 56.8 15.8 28.5 0 56.6-11.1 77.9-32.4 8.4-8.4 15.1-17.8 20.2-27.8.6-1.1 2.2-.7 2.2.5.2 51.2-41.3 92.7-92.3 92.7z" fill="#000319"/></svg>