<svg height="408.87659" width="1000.0084" xmlns="http://www.w3.org/2000/svg"><g fill="#8200ff" stroke="#000" transform="translate(.633348 -2562.0921)"><g stroke-width=".049945"><path d="m4.427744 2799.593v25.9715c0 86.4583 60.088762 144.8524 144.908476 144.8524 85.90735 0 145.52218-59.4026 145.52218-145.3519v-137.8484h-84.65692v142.8429c0 31.2694-20.40653 60.234-60.67167 60.234-38.2989 0-60.413673-26.6427-60.413673-60.1954v-30.5051z"/><path d="m502.69262 2624.3271c-90.51017 0-169.32943 75.3655-169.32943 173.7932 0 94.1103 74.98372 172.2949 169.46993 172.2949 71.59073 0 138.52997-36.9452 159.3716-112.8914h-90.40059c-11.07982 21.0981-34.2378 38.5045-69.96991 38.5045-44.08123 0-74.31661-30.3933-82.30016-65.4749h249.16353l1.23299-25.55c0-116.0029-77.45204-180.6763-167.23796-180.6763zm-.48382 74.4025c40.14986 0 72.88571 25.0215 82.53425 62.8996h-164.27252c9.00955-29.8822 35.93219-62.8996 81.73827-62.8996z" stroke-linejoin="round"/><path d="m998.83431 2798.0947v27.4698c0 86.4583-60.08878 144.8524-144.90851 144.8524-85.90734 0-145.52219-59.4026-145.52219-145.3519v-245.7298h84.65696v70.4226h121.1381v79.4127h-121.1381v100.889c0 31.2694 20.40651 60.234 60.67164 60.234 38.29894 0 60.41367-26.6427 60.41367-60.1954v-32.0034z"/></g><path d="m644.60432 1965.5701c0 36.8114-29.84155 66.6529-66.65297 66.6529-36.81141 0-66.65296-29.8415-66.65296-66.6529s29.84155-66.653 66.65296-66.653c36.81142 0 66.65297 29.8416 66.65297 66.653z" stroke-linejoin="round" stroke-width=".1" transform="matrix(.70232198 0 0 .70232198 -153.43154 1228.9705)"/><path d="m644.60432 1965.5701c0 36.8114-29.84155 66.6529-66.65297 66.6529-36.81141 0-66.65296-29.8415-66.65296-66.6529s29.84155-66.653 66.65296-66.653c36.81142 0 66.65297 29.8416 66.65297 66.653z" stroke-linejoin="round" stroke-width=".1" transform="matrix(.70232198 0 0 .70232198 -359.19546 1228.9705)"/></g></svg>